<svg width="20" height="20" viewBox="0 0 20 20" fill="none" xmlns="http://www.w3.org/2000/svg">
<path d="M19.53 13.93C19.37 13.66 18.92 13.24 17.8 13.44C17.18 13.55 16.55 13.6 15.92 13.57C13.59 13.47 11.48 12.4 10.01 10.75C8.70995 9.29999 7.90995 7.40999 7.89995 5.36999C7.89995 4.22999 8.11995 3.12999 8.56995 2.08999C9.00995 1.07999 8.69995 0.549994 8.47995 0.329994C8.24995 0.0999944 7.70995 -0.220006 6.64995 0.219994C2.55995 1.93999 0.0299523 6.03999 0.329952 10.43C0.629952 14.56 3.52995 18.09 7.36995 19.42C8.28995 19.74 9.25995 19.93 10.26 19.97C10.42 19.98 10.58 19.99 10.74 19.99C14.09 19.99 17.23 18.41 19.21 15.72C19.88 14.79 19.7 14.2 19.53 13.93Z" fill="black"/>
</svg>
